<?xml version="1.0" encoding="UTF-8" standalone="no"?>
<!-- Created with Inkscape (http://www.inkscape.org/) -->

<svg
   width="141.07086mm"
   height="141.07088mm"
   viewBox="0 0 141.07086 141.07088"
   version="1.1"
   id="svg1"
   inkscape:export-filename="add_point.png"
   inkscape:export-xdpi="96"
   inkscape:export-ydpi="96"
   inkscape:version="1.4 (86a8ad7, 2024-10-11)"
   sodipodi:docname="move_point.svg"
   xml:space="preserve"
   xmlns:inkscape="http://www.inkscape.org/namespaces/inkscape"
   xmlns:sodipodi="http://sodipodi.sourceforge.net/DTD/sodipodi-0.dtd"
   xmlns="http://www.w3.org/2000/svg"
   xmlns:svg="http://www.w3.org/2000/svg"><sodipodi:namedview
     id="namedview1"
     pagecolor="#ffffff"
     bordercolor="#000000"
     borderopacity="0.25"
     inkscape:showpageshadow="2"
     inkscape:pageopacity="0.0"
     inkscape:pagecheckerboard="0"
     inkscape:deskcolor="#d1d1d1"
     inkscape:document-units="mm"
     inkscape:zoom="1.1088875"
     inkscape:cx="357.56558"
     inkscape:cy="276.40315"
     inkscape:window-width="1920"
     inkscape:window-height="991"
     inkscape:window-x="-9"
     inkscape:window-y="-9"
     inkscape:window-maximized="1"
     inkscape:current-layer="g3" /><defs
     id="defs1"><linearGradient
       id="swatch1"
       inkscape:swatch="solid"><stop
         style="stop-color:#000000;stop-opacity:0.13456463;"
         offset="0"
         id="stop1" /></linearGradient></defs><g
     inkscape:label="Camada 1"
     inkscape:groupmode="layer"
     id="layer1"
     transform="translate(-5.5799041,-6.3903404)"><g
       id="g3"
       transform="translate(3.896843,3.8968506)"
       style="stroke:#000000;stroke-opacity:1"><path
         d="m 136.64418,65.047679 -18.30493,-18.304933 -7.98124,7.981244 12.66048,12.660489 H 77.862939 V 22.228924 L 90.52343,34.889413 98.50467,26.908168 80.199739,8.6032351 a 11.288889,11.288889 0 0 0 -15.962489,0 L 45.932317,26.908168 53.913561,34.889413 66.57405,22.228924 V 67.384479 H 21.418495 L 34.078983,54.72399 26.09774,46.742746 7.7928064,65.047679 a 11.288889,11.288889 0 0 0 0,15.962489 L 26.09774,99.315106 34.078983,91.333856 21.418495,78.673368 H 66.57405 v 45.155562 l -12.660489,-12.65485 -7.981244,7.98125 18.304933,18.29929 a 11.288889,11.288889 0 0 0 15.962489,0 L 98.50467,119.15533 90.52343,111.17408 77.862939,123.82893 V 78.673368 h 45.155551 l -12.66048,12.660488 7.98124,7.98125 18.30493,-18.304938 a 11.288889,11.288889 0 0 0 0,-15.962489 z"
         id="path1"
         style="stroke-width:5.64444" /></g></g></svg>
